<?xml version="1.0" encoding="UTF-8"?>
<svg xmlns="http://www.w3.org/2000/svg" xmlns:se="https://standardebooks.org/vocab/1.0" version="1.1" viewBox="0 0 1400 440" se:generated-from="e16a9dca58df168c1817be42fc954490081e0aef">
	<path d="m 354.56286,52.807016 -16.2807,0 L 307.12426,130 l 18.90059,0 5.7076,-15.4386 29.38012,0 5.7076,15.4386 18.90059,0 -31.1579,-77.192984 z m 0.5614,46.31579 -17.40351,0 8.60819,-22.45614 0.18714,0 8.60818,22.45614 z"/>
	<path d="m 457.81578,52.807016 -17.59064,0 0,50.900584 c 0,7.76608 -3.83626,10.8538 -8.88889,10.8538 -4.49123,0 -10.0117,-5.23976 -10.0117,-5.23976 l -5.61403,14.69006 c 0,0 7.01754,7.39181 18.05848,7.39181 15.4386,0 24.04678,-8.04678 24.04678,-23.20468 l 0,-55.391814 z"/>
	<path d="m 469.6228,91.356724 c 0,22.549706 16.09357,40.046786 38.92398,40.046786 22.17544,0 38.83041,-17.49708 38.83041,-40.046786 0,-22.549708 -17.40351,-39.953217 -38.83041,-39.953217 -21.23977,0 -38.92398,17.403509 -38.92398,39.953217 z m 18.99415,0 c 0,-11.508772 6.36258,-23.017544 19.92983,-23.017544 13.66082,0 19.83626,11.508772 19.83626,23.017544 0,11.508776 -5.80117,23.017546 -19.83626,23.017546 -14.40936,0 -19.92983,-11.50877 -19.92983,-23.017546 z"/>
	<path d="m 619.46052,52.807016 -17.59064,0 0,44.63158 c 0,12.912284 -3.92983,16.654974 -12.53802,16.654974 -8.60818,0 -12.53801,-3.74269 -12.53801,-16.654974 l 0,-44.63158 -17.59064,0 0,49.777774 c 0,19.08772 10.47953,28.81872 30.12865,28.81872 19.64913,0 30.12866,-9.731 30.12866,-28.81872 l 0,-49.777774 z"/>
	<path d="m 634.76608,52.807016 0,77.192984 17.59064,0 0,-30.502925 L 675.93567,130 l 22.36257,0 -26.5731,-31.906433 c 9.4503,-2.994152 15.81287,-10.760234 15.81287,-22.362574 0,-15.157895 -10.8538,-22.923977 -25.16959,-22.923977 l -27.60234,0 z m 17.59064,34.245615 0,-20.210527 2.05848,0 c 6.64328,0 14.59649,0.467836 14.59649,10.105263 0,9.637428 -7.95321,10.105264 -14.59649,10.105264 l -2.05848,0 z"/>
	<path d="m 724.42545,82.093566 0.18713,0 L 755.30264,130 l 17.59065,0 0,-77.192984 -17.59065,0 0,47.906434 -0.18713,0 -30.69006,-47.906434 -17.59065,0 0,77.192984 17.59065,0 0,-47.906434 z"/>
	<path d="m 828.34213,52.807016 -16.28071,0 L 780.90353,130 l 18.90058,0 5.70761,-15.4386 29.38011,0 5.70761,15.4386 18.90058,0 -31.15789,-77.192984 z m 0.5614,46.31579 -17.40351,0 8.60819,-22.45614 0.18713,0 8.60819,22.45614 z"/>
	<path d="m 885.01023,52.807016 -17.59065,0 0,77.192984 44.16375,0 0,-15.4386 -26.5731,0 0,-61.754384 z"/>
	<path d="m 952.35676,91.356724 c 0,22.549706 16.09357,40.046786 38.92398,40.046786 22.17546,0 38.83046,-17.49708 38.83046,-40.046786 0,-22.549708 -17.4036,-39.953217 -38.83046,-39.953217 -21.23977,0 -38.92398,17.403509 -38.92398,39.953217 z m 18.99416,0 c 0,-11.508772 6.36257,-23.017544 19.92982,-23.017544 13.66086,0 19.83626,11.508772 19.83626,23.017544 0,11.508776 -5.8012,23.017546 -19.83626,23.017546 -14.40936,0 -19.92982,-11.50877 -19.92982,-23.017546 z"/>
	<path d="m 1087.5044,52.807016 -44.6316,0 0,77.192984 17.5907,0 0,-30.970761 24.9824,0 0,-15.438597 -24.9824,0 0,-15.345029 27.0409,0 0,-15.438597 z"/>
	<path d="m 226.05555,168.24561 18.33918,0 0,61.75439 17.59064,0 0,-61.75439 18.33918,0 0,-15.43859 -54.269,0 0,15.43859 z"/>
	<path d="m 309.24999,199.02924 24.88889,0 0,30.97076 17.59065,0 0,-77.19298 -17.59065,0 0,30.78362 -24.88889,0 0,-30.78362 -17.59064,0 0,77.19298 17.59064,0 0,-30.97076 z"/>
	<path d="m 412.09503,152.80702 -44.16375,0 0,77.19298 44.16375,0 0,-15.4386 -26.5731,0 0,-15.53216 25.45029,0 0,-15.4386 -25.45029,0 0,-15.34503 26.5731,0 0,-15.43859 z"/>
	<path d="m 457.7924,152.80702 0,77.19298 17.59064,0 0,-28.63158 10.5731,0 c 15.06433,0 26.38597,-8.88889 26.38597,-24.79532 0,-16 -11.32164,-23.76608 -26.38597,-23.76608 l -28.16374,0 z m 17.59064,34.52631 0,-20.49123 4.95907,0 c 6.92397,0 13.47368,2.33919 13.47368,10.2924 0,7.85965 -6.54971,10.19883 -13.47368,10.19883 l -4.95907,0 z"/>
	<path d="m 542.70029,152.80702 -17.59065,0 0,77.19298 44.16375,0 0,-15.4386 -26.5731,0 0,-61.75438 z"/>
	<path d="m 623.59066,152.80702 -16.2807,0 -31.1579,77.19298 18.90059,0 5.7076,-15.4386 29.38012,0 5.7076,15.4386 18.90058,0 -31.15789,-77.19298 z m 0.5614,46.31579 -17.40351,0 8.60819,-22.45614 0.18714,0 8.60818,22.45614 z"/>
	<path d="m 732.46932,186.77193 -35.64913,0 0,13.56725 17.77778,0 c 0,9.45029 -8.32748,14.87719 -16.74854,14.87719 -10.8538,0 -19.64912,-10.66666 -19.64912,-23.76608 0,-13.38012 8.79532,-24.14035 19.64912,-24.14035 6.83041,0 12.72515,2.71345 17.21638,9.91813 l 11.50877,-12.63158 c -6.73684,-8.14035 -16.18714,-13.19298 -29.75439,-13.19298 -21.7076,0 -37.61403,17.87134 -37.61403,40.04678 0,22.08187 16.8421,39.95322 37.61403,39.95322 15.1579,0 31.4386,-8.32749 35.64913,-27.88304 l 0,-16.74854 z"/>
	<path d="m 804.47517,152.80702 -17.59065,0 0,44.63158 c 0,12.91228 -3.92982,16.65497 -12.53801,16.65497 -8.60819,0 -12.53801,-3.74269 -12.53801,-16.65497 l 0,-44.63158 -17.59064,0 0,49.77777 c 0,19.08772 10.47953,28.81872 30.12865,28.81872 19.64912,0 30.12866,-9.731 30.12866,-28.81872 l 0,-49.77777 z"/>
	<path d="m 863.94447,152.80702 -44.16374,0 0,77.19298 44.16374,0 0,-15.4386 -26.5731,0 0,-15.53216 25.45029,0 0,-15.4386 -25.45029,0 0,-15.34503 26.5731,0 0,-15.43859 z"/>
	<path d="m 892.81432,152.80702 28.44445,42.5731 0,34.61988 17.59064,0 0,-34.61988 28.44445,-42.5731 -21.1462,0 -16.09357,24.70175 -16.09357,-24.70175 -21.1462,0 z"/>
	<path d="m 1019.2954,152.80702 -44.16378,0 0,77.19298 44.16378,0 0,-15.4386 -26.57314,0 0,-15.53216 25.45034,0 0,-15.4386 -25.45034,0 0,-15.34503 26.57314,0 0,-15.43859 z"/>
	<path d="m 1074.1608,152.80702 -16.2807,0 -31.1579,77.19298 18.9006,0 5.7076,-15.4386 29.3801,0 5.7076,15.4386 18.9006,0 -31.1579,-77.19298 z m 0.5614,46.31579 -17.4035,0 8.6082,-22.45614 0.1871,0 8.6082,22.45614 z"/>
	<path d="m 1113.2383,152.80702 0,77.19298 17.5906,0 0,-30.50292 23.579,30.50292 22.3626,0 -26.5731,-31.90643 c 9.4503,-2.99416 15.8128,-10.76024 15.8128,-22.36258 0,-15.15789 -10.8538,-22.92397 -25.1696,-22.92397 l -27.6023,0 z m 17.5906,34.24561 0,-20.21053 2.0585,0 c 6.6433,0 14.5965,0.46784 14.5965,10.10527 0,9.63742 -7.9532,10.10526 -14.5965,10.10526 l -2.0585,0 z"/>
	<path d="m 416.49945,332.10526 0,57.89474 16.77193,0 c 15.92983,0 29.19299,-12.07018 29.19299,-28.98246 0,-16.8421 -13.33334,-28.91228 -29.19299,-28.91228 l -16.77193,0 z m 13.19299,46.10527 0,-34.31579 2.03508,0 c 9.82457,0 16.49123,7.50877 16.49123,17.19298 -0.0702,9.68421 -6.73684,17.12281 -16.49123,17.12281 l -2.03508,0 z"/>
	<path d="m 502.71217,332.10526 -12.21052,0 L 467.13323,390 l 14.17544,0 4.2807,-11.57895 22.03509,0 4.2807,11.57895 14.17544,0 -23.36843,-57.89474 z m 0.42106,34.73685 -13.05263,0 6.45614,-16.84211 0.14035,0 6.45614,16.84211 z"/>
	<path d="m 546.46327,354.07018 0.14035,0 23.01755,35.92982 13.19298,0 0,-57.89474 -13.19298,0 0,35.92983 -0.14035,0 -23.01755,-35.92983 -13.19298,0 0,57.89474 13.19298,0 0,-35.92982 z"/>
	<path d="m 609.44024,332.10526 -13.19298,0 0,57.89474 13.19298,0 0,-57.89474 z"/>
	<path d="m 656.02576,332.10526 -33.1228,0 0,57.89474 33.1228,0 0,-11.57895 -19.92982,0 0,-11.64912 19.08772,0 0,-11.57895 -19.08772,0 0,-11.50877 19.92982,0 0,-11.57895 z"/>
	<path d="m 681.80318,332.10526 -13.19298,0 0,57.89474 33.12281,0 0,-11.57895 -19.92983,0 0,-46.31579 z"/>
	<path d="m 737.40955,332.10526 0,57.89474 16.77193,0 c 15.92982,0 29.19298,-12.07018 29.19298,-28.98246 0,-16.8421 -13.33333,-28.91228 -29.19298,-28.91228 l -16.77193,0 z m 13.19298,46.10527 0,-34.31579 2.03509,0 c 9.82456,0 16.49123,7.50877 16.49123,17.19298 -0.0702,9.68421 -6.73684,17.12281 -16.49123,17.12281 l -2.03509,0 z"/>
	<path d="m 827.34156,332.10526 -33.12281,0 0,57.89474 33.12281,0 0,-11.57895 -19.92982,0 0,-11.64912 19.08771,0 0,-11.57895 -19.08771,0 0,-11.50877 19.92982,0 0,-11.57895 z"/>
	<path d="m 873.39968,332.10526 -33.47368,0 0,57.89474 13.19298,0 0,-23.22807 18.73684,0 0,-11.57895 -18.73684,0 0,-11.50877 20.2807,0 0,-11.57895 z"/>
	<path d="m 882.07731,361.01754 c 0,16.91228 12.07018,30.03509 29.19298,30.03509 16.63158,0 29.12281,-13.12281 29.12281,-30.03509 0,-16.91228 -13.05263,-29.96491 -29.12281,-29.96491 -15.92982,0 -29.19298,13.05263 -29.19298,29.96491 z m 14.24561,0 c 0,-8.63157 4.77193,-17.26315 14.94737,-17.26315 10.24562,0 14.87719,8.63158 14.87719,17.26315 0,8.63158 -4.35087,17.26316 -14.87719,17.26316 -10.80702,0 -14.94737,-8.63158 -14.94737,-17.26316 z"/>
	<path d="m 984.33717,332.10526 -33.12281,0 0,57.89474 33.12281,0 0,-11.57895 -19.92983,0 0,-11.64912 19.08772,0 0,-11.57895 -19.08772,0 0,-11.50877 19.92983,0 0,-11.57895 z"/>
</svg>
