<?xml version="1.0" encoding="utf-8"?>
<svg xmlns="http://www.w3.org/2000/svg" xmlns:svg="http://www.w3.org/2000/svg" version="1.1" viewBox="0 0 1400 440">
	<title>The titlepage for the Standard Ebooks edition of A Journal of the Plague Year, by Daniel Defoe</title>
	<g aria-label="A JOURNAL OF">
		<path d="m 354.56286,52.807016 h -16.2807 L 307.12426,130 h 18.90059 l 5.7076,-15.4386 h 29.38012 L 366.82017,130 h 18.90059 z m 0.5614,46.31579 h -17.40351 l 8.60819,-22.45614 h 0.18714 z"/>
		<path d="M 457.81578,52.807016 H 440.22514 V 103.7076 c 0,7.76608 -3.83626,10.8538 -8.88889,10.8538 -4.49123,0 -10.0117,-5.23976 -10.0117,-5.23976 l -5.61403,14.69006 c 0,0 7.01754,7.39181 18.05848,7.39181 15.4386,0 24.04678,-8.04678 24.04678,-23.20468 z"/>
		<path d="m 469.6228,91.356724 c 0,22.549706 16.09357,40.046786 38.92398,40.046786 22.17544,0 38.83041,-17.49708 38.83041,-40.046786 0,-22.549708 -17.40351,-39.953217 -38.83041,-39.953217 -21.23977,0 -38.92398,17.403509 -38.92398,39.953217 z m 18.99415,0 c 0,-11.508772 6.36258,-23.017544 19.92983,-23.017544 13.66082,0 19.83626,11.508772 19.83626,23.017544 0,11.508776 -5.80117,23.017546 -19.83626,23.017546 -14.40936,0 -19.92983,-11.50877 -19.92983,-23.017546 z"/>
		<path d="m 619.46052,52.807016 h -17.59064 v 44.63158 c 0,12.912284 -3.92983,16.654974 -12.53802,16.654974 -8.60818,0 -12.53801,-3.74269 -12.53801,-16.654974 v -44.63158 h -17.59064 v 49.777774 c 0,19.08772 10.47953,28.81872 30.12865,28.81872 19.64913,0 30.12866,-9.731 30.12866,-28.81872 z"/>
		<path d="M 634.76608,52.807016 V 130 h 17.59064 V 99.497075 L 675.93567,130 h 22.36257 l -26.5731,-31.906433 c 9.4503,-2.994152 15.81287,-10.760234 15.81287,-22.362574 0,-15.157895 -10.8538,-22.923977 -25.16959,-22.923977 z m 17.59064,34.245615 V 66.842104 h 2.05848 c 6.64328,0 14.59649,0.467836 14.59649,10.105263 0,9.637428 -7.95321,10.105264 -14.59649,10.105264 z"/>
		<path d="m 724.42545,82.093566 h 0.18713 L 755.30264,130 h 17.59065 V 52.807016 h -17.59065 v 47.906434 h -0.18713 L 724.42545,52.807016 H 706.8348 V 130 h 17.59065 z"/>
		<path d="M 828.34213,52.807016 H 812.06142 L 780.90353,130 h 18.90058 l 5.70761,-15.4386 h 29.38011 L 840.59944,130 h 18.90058 z m 0.5614,46.31579 h -17.40351 l 8.60819,-22.45614 h 0.18713 z"/>
		<path d="M 885.01023,52.807016 H 867.41958 V 130 h 44.16375 v -15.4386 h -26.5731 z"/>
		<path d="m 952.35676,91.356724 c 0,22.549706 16.09357,40.046786 38.92398,40.046786 22.17546,0 38.83046,-17.49708 38.83046,-40.046786 0,-22.549708 -17.4036,-39.953217 -38.83046,-39.953217 -21.23977,0 -38.92398,17.403509 -38.92398,39.953217 z m 18.99416,0 c 0,-11.508772 6.36257,-23.017544 19.92982,-23.017544 13.66086,0 19.83626,11.508772 19.83626,23.017544 0,11.508776 -5.8012,23.017546 -19.83626,23.017546 -14.40936,0 -19.92982,-11.50877 -19.92982,-23.017546 z"/>
		<path d="m 1087.5044,52.807016 h -44.6316 V 130 h 17.5907 V 99.029239 h 24.9824 V 83.590642 h -24.9824 V 68.245613 h 27.0409 z"/>
	</g>
	<g aria-label="THE PLAGUE YEAR">
		<path d="m 226.05555,168.24561 h 18.33918 V 230 h 17.59064 v -61.75439 h 18.33918 v -15.43859 h -54.269 z"/>
		<path d="m 309.24999,199.02924 h 24.88889 V 230 h 17.59065 v -77.19298 h -17.59065 v 30.78362 H 309.24999 V 152.80702 H 291.65935 V 230 h 17.59064 z"/>
		<path d="M 412.09503,152.80702 H 367.93128 V 230 h 44.16375 v -15.4386 h -26.5731 v -15.53216 h 25.45029 v -15.4386 h -25.45029 v -15.34503 h 26.5731 z"/>
		<path d="M 457.7924,152.80702 V 230 h 17.59064 v -28.63158 h 10.5731 c 15.06433,0 26.38597,-8.88889 26.38597,-24.79532 0,-16 -11.32164,-23.76608 -26.38597,-23.76608 z m 17.59064,34.52631 V 166.8421 h 4.95907 c 6.92397,0 13.47368,2.33919 13.47368,10.2924 0,7.85965 -6.54971,10.19883 -13.47368,10.19883 z"/>
		<path d="M 542.70029,152.80702 H 525.10964 V 230 h 44.16375 v -15.4386 h -26.5731 z"/>
		<path d="m 623.59066,152.80702 h -16.2807 L 576.15206,230 h 18.90059 l 5.7076,-15.4386 h 29.38012 L 635.84797,230 h 18.90058 z m 0.5614,46.31579 h -17.40351 l 8.60819,-22.45614 h 0.18714 z"/>
		<path d="m 732.46932,186.77193 h -35.64913 v 13.56725 h 17.77778 c 0,9.45029 -8.32748,14.87719 -16.74854,14.87719 -10.8538,0 -19.64912,-10.66666 -19.64912,-23.76608 0,-13.38012 8.79532,-24.14035 19.64912,-24.14035 6.83041,0 12.72515,2.71345 17.21638,9.91813 l 11.50877,-12.63158 c -6.73684,-8.14035 -16.18714,-13.19298 -29.75439,-13.19298 -21.7076,0 -37.61403,17.87134 -37.61403,40.04678 0,22.08187 16.8421,39.95322 37.61403,39.95322 15.1579,0 31.4386,-8.32749 35.64913,-27.88304 z"/>
		<path d="m 804.47517,152.80702 h -17.59065 v 44.63158 c 0,12.91228 -3.92982,16.65497 -12.53801,16.65497 -8.60819,0 -12.53801,-3.74269 -12.53801,-16.65497 v -44.63158 h -17.59064 v 49.77777 c 0,19.08772 10.47953,28.81872 30.12865,28.81872 19.64912,0 30.12866,-9.731 30.12866,-28.81872 z"/>
		<path d="M 863.94447,152.80702 H 819.78073 V 230 h 44.16374 v -15.4386 h -26.5731 v -15.53216 h 25.45029 v -15.4386 h -25.45029 v -15.34503 h 26.5731 z"/>
		<path d="m 892.81432,152.80702 28.44445,42.5731 V 230 h 17.59064 v -34.61988 l 28.44445,-42.5731 h -21.1462 l -16.09357,24.70175 -16.09357,-24.70175 z"/>
		<path d="M 1019.2954,152.80702 H 975.13162 V 230 h 44.16378 v -15.4386 h -26.57314 v -15.53216 h 25.45034 v -15.4386 h -25.45034 v -15.34503 h 26.57314 z"/>
		<path d="m 1074.1608,152.80702 h -16.2807 L 1026.7222,230 h 18.9006 l 5.7076,-15.4386 h 29.3801 L 1086.4181,230 h 18.9006 z m 0.5614,46.31579 h -17.4035 l 8.6082,-22.45614 h 0.1871 z"/>
		<path d="M 1113.2383,152.80702 V 230 h 17.5906 V 199.49708 L 1154.4079,230 h 22.3626 l -26.5731,-31.90643 c 9.4503,-2.99416 15.8128,-10.76024 15.8128,-22.36258 0,-15.15789 -10.8538,-22.92397 -25.1696,-22.92397 z m 17.5906,34.24561 V 166.8421 h 2.0585 c 6.6433,0 14.5965,0.46784 14.5965,10.10527 0,9.63742 -7.9532,10.10526 -14.5965,10.10526 z"/>
	</g>
	<g aria-label="DANIEL DEFOE">
		<path d="M 416.49945,332.10526 V 390 h 16.77193 c 15.92983,0 29.19299,-12.07018 29.19299,-28.98246 0,-16.8421 -13.33334,-28.91228 -29.19299,-28.91228 z m 13.19299,46.10527 v -34.31579 h 2.03508 c 9.82457,0 16.49123,7.50877 16.49123,17.19298 -0.0702,9.68421 -6.73684,17.12281 -16.49123,17.12281 z"/>
		<path d="M 502.71217,332.10526 H 490.50165 L 467.13323,390 h 14.17544 l 4.2807,-11.57895 h 22.03509 L 511.90516,390 h 14.17544 z m 0.42106,34.73685 H 490.0806 L 496.53674,350 h 0.14035 z"/>
		<path d="m 546.46327,354.07018 h 0.14035 L 569.62117,390 h 13.19298 v -57.89474 h -13.19298 v 35.92983 h -0.14035 L 546.46327,332.10526 H 533.27029 V 390 h 13.19298 z"/>
		<path d="M 609.44024,332.10526 H 596.24726 V 390 h 13.19298 z"/>
		<path d="m 656.02576,332.10526 h -33.1228 V 390 h 33.1228 v -11.57895 h -19.92982 v -11.64912 h 19.08772 v -11.57895 h -19.08772 v -11.50877 h 19.92982 z"/>
		<path d="M 681.80318,332.10526 H 668.6102 V 390 h 33.12281 v -11.57895 h -19.92983 z"/>
		<path d="M 737.40955,332.10526 V 390 h 16.77193 c 15.92982,0 29.19298,-12.07018 29.19298,-28.98246 0,-16.8421 -13.33333,-28.91228 -29.19298,-28.91228 z m 13.19298,46.10527 v -34.31579 h 2.03509 c 9.82456,0 16.49123,7.50877 16.49123,17.19298 -0.0702,9.68421 -6.73684,17.12281 -16.49123,17.12281 z"/>
		<path d="M 827.34156,332.10526 H 794.21875 V 390 h 33.12281 v -11.57895 h -19.92982 v -11.64912 h 19.08771 v -11.57895 h -19.08771 v -11.50877 h 19.92982 z"/>
		<path d="M 873.39968,332.10526 H 839.926 V 390 h 13.19298 v -23.22807 h 18.73684 v -11.57895 h -18.73684 v -11.50877 h 20.2807 z"/>
		<path d="m 882.07731,361.01754 c 0,16.91228 12.07018,30.03509 29.19298,30.03509 16.63158,0 29.12281,-13.12281 29.12281,-30.03509 0,-16.91228 -13.05263,-29.96491 -29.12281,-29.96491 -15.92982,0 -29.19298,13.05263 -29.19298,29.96491 z m 14.24561,0 c 0,-8.63157 4.77193,-17.26315 14.94737,-17.26315 10.24562,0 14.87719,8.63158 14.87719,17.26315 0,8.63158 -4.35087,17.26316 -14.87719,17.26316 -10.80702,0 -14.94737,-8.63158 -14.94737,-17.26316 z"/>
		<path d="M 984.33717,332.10526 H 951.21436 V 390 h 33.12281 v -11.57895 h -19.92983 v -11.64912 h 19.08772 v -11.57895 h -19.08772 v -11.50877 h 19.92983 z"/>
	</g>
</svg>
