<?xml version="1.0" encoding="utf-8"?>
<svg xmlns="http://www.w3.org/2000/svg" version="1.1" viewBox="0 0 100 103">
	<title>A filigreed design purported to warn against the plague.</title>
	<path d="M 89.16183,102.31361 C 85.285337,100.82292 80.431156,95.59022 78.855267,91.20336 77.93711,88.64746 76.585716,86.32572 75.852168,86.04395 75.11862,85.76218 72.630996,85.8969 70.324114,86.34333 l -4.194335,0.81169 v 4.19292 c 0,6.84548 -5.08787,10.25788 -9.882222,6.62794 -2.36681,-1.79199 -3.80494,-1.67348 -6.957044,0.57329 -5.495068,3.91681 -12.51531,-0.2866 -12.51531,-7.49362 0,-3.21038 -0.303237,-3.66757 -3.250075,-4.90008 -1.78754,-0.74764 -4.734288,-1.23546 -6.548328,-1.08403 -3.021227,0.25218 -3.41205,0.61442 -4.65308,4.31267 -0.745154,2.22054 -3.012556,5.78057 -5.038672,7.91117 -3.489907,3.66988 -3.952436,3.87382 -8.785553,3.87382 -5.483914,0 -6.968036,-1.16167 -8.175277,-6.39906 -0.808949,-3.50949 7.018923,-12.00417 13.031833,-14.14193 4.800304,-1.70665 5.829331,-3.26619 4.912438,-7.44502 C 17.432074,69.37106 15.766351,68.34828 11.554439,69.0606 3.436336,70.43354 1.822421,67.22854 3.288597,52.64586 4.51588,40.43917 5.483949,38.78382 11.395337,38.78382 c 5.394558,0 6.372147,-1.05714 7.04909,-7.62268 0.513895,-4.98422 0.494711,-5.03519 -1.894273,-5.03519 -4.654516,0 -13.194006,-4.88365 -13.194006,-7.54552 0,-0.49575 -0.575277,-1.5437 -1.278405,-2.32877 C 1.374624,15.46659 0.53362,13.38992 0.20885,11.63684 -0.313743,8.81596 -0.005917,8.06214 2.885554,5.08187 6.499698,1.35673 9.405828,0.81458 13.853706,3.03572 c 4.213438,2.10407 7.421261,6.06217 9.221202,11.37794 1.942361,5.73637 3.607632,6.43776 9.179908,3.86649 3.366157,-1.55329 3.571901,-1.87687 3.593867,-5.65202 0.03161,-5.43842 1.700677,-9.66057 4.284756,-10.83914 3.148915,-1.4362 4.335978,-1.22826 7.315657,1.28153 3.34373,2.81641 4.210006,2.81763 7.542609,0.0106 l 2.670959,-2.24974 3.418173,1.7456 c 1.879994,0.96007 4.145878,2.85733 5.035295,4.21613 1.395986,2.1327 1.464179,2.89393 0.498666,5.5667 -1.284376,3.55552 -0.831701,4.21921 3.715278,5.44717 5.251822,1.41828 6.942971,-0.0403 9.491327,-8.18651 3.190906,-10.20012 6.77295,-11.86604 15.029308,-6.98973 2.702644,1.59623 3.350233,2.58117 3.838043,5.83742 0.322756,2.15445 0.296761,4.87281 -0.05781,6.04078 -0.792303,2.61033 -3.966779,6.1922 -5.487869,6.1922 -0.617747,0 -3.188811,1.03856 -5.713476,2.30791 -4.092687,2.05774 -4.590297,2.624 -4.590297,5.22364 0,4.18952 2.350597,7.22084 5.06959,6.53772 3.51619,-0.8834 6.068304,0.28421 8.70448,3.98235 2.739487,3.84308 3.030531,6.07447 1.386051,10.62682 -0.861588,2.38508 -0.861588,3.41761 0,4.79863 1.605136,2.57284 1.337873,6.35168 -0.683997,9.67108 -2.259372,3.70933 -5.684139,4.64877 -9.253312,2.53827 -1.508518,-0.89201 -3.017425,-1.24071 -3.458466,-0.79922 -0.430311,0.43075 -0.992248,3.30548 -1.248744,6.38829 -0.537757,6.4632 0.619978,8.39738 5.026398,8.39738 1.879009,0 4.062492,1.17169 7.160782,3.84258 4.188609,3.61079 4.457497,4.10431 4.457912,8.1821 8.44e-4,8.18562 -4.537856,12.33769 -10.83817,9.91492 z M 14.928625,89.47186 c 0.225805,-0.6781 -0.112902,-1.01715 -0.790315,-0.79112 -0.652006,0.21755 -1.36329,0.92956 -1.580631,1.58224 -0.225805,0.67809 0.112902,1.01715 0.790315,0.79112 0.652015,-0.21756 1.363299,-0.92957 1.580631,-1.58224 z m 74.233205,0.91221 c 0,-1.27803 -2.676965,-3.68112 -4.100644,-3.68112 -1.798966,0 -0.681216,2.3036 1.669489,3.44072 2.543218,1.23023 2.431155,1.21915 2.431155,0.2404 z M 52.310548,86.52212 c -0.843,-0.84385 -1.324722,-0.84385 -2.167722,0 -0.843001,0.84386 -0.602149,1.08496 1.083861,1.08496 1.686009,0 1.926861,-0.2411 1.083861,-1.08496 z m -5.780593,-4.52067 c 2.541194,-2.54377 1.008623,-3.56259 -9.303143,-6.18454 -6.032401,-1.53384 -6.446391,-1.95897 -7.161315,-7.35382 -0.723829,-5.46202 -2.742575,-9.78831 -4.567454,-9.78831 -2.302962,0 -3.501866,6.27126 -2.30354,12.04943 1.31439,6.33778 2.729362,7.82135 7.548498,7.91441 2.184983,0.0422 5.295421,0.95347 7.387029,2.16419 4.116207,2.38263 6.830241,2.76991 8.399925,1.19864 z M 68.21474,81.33814 c 6.882031,-2.09494 8.304842,-3.1713 8.292902,-6.2736 -0.0054,-1.30663 0.875453,-4.89706 1.956622,-7.97876 1.625097,-4.63205 1.764048,-5.84638 0.801769,-7.00704 -1.506604,-1.81718 -4.209537,-1.80277 -4.91066,0.0262 -0.301539,0.78659 -0.561765,3.12603 -0.578294,5.19877 -0.04146,5.2016 -2.058126,7.19752 -9.584395,9.48588 -7.725438,2.34891 -9.425393,3.91098 -7.079745,6.50552 2.014428,2.22817 3.899425,2.23549 11.101801,0.043 z M 42.027143,65.61612 c 0.272312,-3.31115 0.177546,-3.44395 -2.258044,-3.16447 -1.864151,0.21392 -2.621571,0.85191 -2.839518,2.39179 -0.460568,3.25408 0.514157,4.83999 2.777043,4.51834 1.645265,-0.23387 2.090858,-0.95312 2.320519,-3.74566 z m 12.36291,0.28511 c 1.288964,-4.06529 -2.410056,-9.42714 -4.831429,-7.0033 -1.495096,1.4966 -1.283924,6.6382 0.339375,8.26313 1.637787,1.63945 3.761649,1.04379 4.492054,-1.25983 z M 65.67817,64.61259 c 0,-2.24291 -2.691841,-3.90193 -4.508005,-2.77834 -2.17847,1.34774 -0.07659,4.97774 2.882213,4.97774 1.120026,0 1.625792,-0.68421 1.625792,-2.1994 z m 24.386878,-7.24065 c 0,-0.21928 -0.406448,-0.65016 -0.903218,-0.95749 -0.496769,-0.30733 -0.903217,-0.12792 -0.903217,0.3987 0,0.52663 0.406448,0.9575 0.903217,0.9575 0.49677,0 0.903218,-0.17942 0.903218,-0.39871 z M 42.646119,52.30879 c 0,-1.89772 -0.474235,-2.26308 -3.238569,-2.49503 -4.257732,-0.35727 -6.308894,1.77227 -4.080819,4.23677 2.274221,2.51554 7.319388,1.31497 7.319388,-1.74174 z m -22.580443,0.94119 c 0,-0.80739 -1.005146,-1.47198 -2.483849,-1.64229 -2.669261,-0.30746 -2.781549,-0.18632 -1.917278,2.0682 0.702821,1.83339 4.401127,1.47549 4.401127,-0.42591 z m 47.41893,-0.88691 c 0,-2.08432 -0.487052,-2.81755 -2.148909,-3.23507 -3.623375,-0.91033 -7.290593,-0.0988 -7.629344,1.68842 -0.627935,3.31283 0.51832,4.24182 5.233821,4.24182 4.440769,0 4.544432,-0.0615 4.544432,-2.69517 z m -16.257919,-1.8255 c 0,-0.49727 -0.633662,-0.90413 -1.408135,-0.90413 -0.774473,0 -1.156931,0.40686 -0.84991,0.90413 0.307022,0.49727 0.940684,0.90414 1.408135,0.90414 0.467451,0 0.84991,-0.40687 0.84991,-0.90414 z m 32.343892,-0.6781 c -0.366644,-1.90577 -1.969629,-1.7856 -2.378127,0.17828 -0.170392,0.81912 0.327497,1.40396 1.195246,1.40396 0.930278,0 1.373279,-0.59257 1.182881,-1.58224 z M 26.336987,46.71986 c 0.773317,-1.10519 1.42339,-2.63092 1.444589,-3.39051 0.07659,-2.74246 5.097291,-11.34853 7.246344,-12.42098 1.20939,-0.60352 3.745743,-1.33888 5.63634,-1.6341 4.637716,-0.72421 7.347351,-3.4273 5.986708,-5.97226 -1.059249,-1.98124 -1.817735,-1.98227 -9.424156,-0.0128 -1.987079,0.51447 -5.076887,1.16693 -6.866243,1.4499 -3.895921,0.61613 -5.369448,3.13051 -7.511817,12.81796 -1.713892,7.74997 -1.745803,8.68453 -0.344388,10.08736 1.532056,1.53361 2.230541,1.36512 3.832623,-0.92449 z m 27.733354,-4.70489 c 1.985544,-4.36222 -1.119484,-9.40562 -4.209979,-6.83812 -1.343256,1.11593 -1.885575,7.28347 -0.74118,8.42902 1.333556,1.33493 4.011,0.4746 4.951159,-1.5909 z m -12.815024,-0.0233 c 1.450793,-1.74988 0.330334,-5.01614 -1.720729,-5.01614 -2.577034,0 -3.978168,2.24103 -2.790284,4.46289 1.167211,2.18315 2.975778,2.40496 4.511013,0.55325 z m 22.993611,0.12287 c 2.322949,-1.7003 1.507045,-4.68694 -1.280411,-4.68694 -2.298337,0 -3.34177,2.0197 -2.362781,4.57349 0.619679,1.61649 1.550156,1.64547 3.643192,0.11345 z m 13.489547,-2.96472 c -0.193424,-3.8159 -1.74331,-12.94329 -2.290922,-13.49145 -0.62789,-0.62853 -9.425158,-3.06608 -13.419728,-3.71833 -3.344986,-0.5462 -6.152864,1.30147 -4.946698,3.25506 1.019435,1.65116 7.50741,4.54736 10.186851,4.54736 2.812511,0 4.732716,1.42489 4.732716,3.51191 0,2.33522 3.769913,9.24472 4.842647,8.87561 0.56555,-0.1946 0.968358,-1.53568 0.895134,-2.98016 z M 53.033122,18.44076 c 0,-0.74591 -0.609672,-1.35621 -1.354826,-1.35621 -1.410438,0 -1.791957,1.06933 -0.752679,2.10965 1.03927,1.04034 2.107505,0.65843 2.107505,-0.75344 z M 15.097979,13.46802 c -0.924498,-1.72921 -4.516089,-2.59205 -4.516089,-1.08496 0,1.28714 2.123492,2.89323 3.82529,2.89323 1.377687,0 1.494328,-0.30534 0.690799,-1.80827 z m 72.859564,-0.60276 c -0.331183,-0.33151 -0.602148,-0.0603 -0.602148,0.60276 0,0.66303 0.270965,0.93426 0.602148,0.60276 0.331174,-0.33152 0.331174,-0.874 0,-1.20552 z"/>
</svg>
